<svg width="110" height="110" viewBox="0 0 110 110" fill="none" xmlns="http://www.w3.org/2000/svg">
<path d="M7.30176 2.9209H101.803C104.222 2.9209 106.185 4.88224 106.185 7.30176V101.803C106.185 104.222 104.222 106.185 101.803 106.185H7.30176C4.88223 106.185 2.9209 104.222 2.9209 101.803V7.30176C2.9209 4.88223 4.88223 2.9209 7.30176 2.9209Z" fill="#F5F3E7" stroke="#0B3D2E" stroke-width="5.84126" stroke-linejoin="round"/>
<path d="M53.1749 47.6118C53.0916 45.2298 53.0506 42.8453 52.8969 40.4671C52.8546 39.8124 52.5407 39.1449 52.2357 38.543C50.8686 35.8459 49.1722 33.3623 47.3668 30.9404C46.1432 29.2979 45.0759 27.5372 43.9304 25.8355C43.5089 25.2079 43.1885 24.5172 42.4044 24.1725C42.1097 24.0426 41.9085 23.5423 41.8009 23.1706C41.5024 22.1455 41.9829 21.3391 42.6658 20.6342C43.1821 20.103 43.8279 19.8587 44.5313 20.1326C45.9484 20.6831 46.9914 21.9075 45.8293 23.5976C45.6281 23.8908 45.5986 24.0773 45.8088 24.3783C47.8998 27.3751 49.9755 30.3822 52.0499 33.3906C52.3882 33.8806 52.6983 34.3899 53.0724 34.9674C53.1172 34.7732 53.1736 34.6459 53.1723 34.5211C53.1249 31.0098 53.0686 27.4999 53.0237 23.9899C53.0173 23.5307 52.952 23.159 52.5804 22.8014C51.9872 22.2304 51.9564 21.4908 52.3626 20.8066C52.9648 19.7905 53.7502 19.3429 54.5869 19.541C55.4428 19.7442 56.1039 20.4735 56.1885 21.3313C56.2474 21.9307 56.1885 22.4838 55.6017 22.8503C55.4915 22.9185 55.4184 23.132 55.4172 23.2786C55.4069 26.9584 55.4095 30.6394 55.5376 34.4169C55.9117 33.9526 56.3179 33.5102 56.6562 33.0214C58.6293 30.1764 60.5872 27.3211 62.5514 24.4709C62.6833 24.2793 62.8358 24.1018 62.9921 23.8998C62.8999 23.7455 62.8179 23.5989 62.7269 23.4574C62.2695 22.75 62.0517 22.022 62.5501 21.24C63.1164 20.3487 63.9275 19.8625 64.9781 20.0323C65.8712 20.1763 66.4234 20.8066 66.6822 21.6722C66.9026 22.4053 66.7937 23.1178 66.4516 23.7867C66.3504 23.9847 66.1544 24.2664 65.9878 24.2754C65.2369 24.3178 65.0858 24.9404 64.7539 25.4111C62.9563 27.9603 61.1112 30.4761 59.3507 33.051C58.1847 34.7578 57.0867 36.5173 56.0565 38.3102C55.699 38.9314 55.4966 39.7173 55.4671 40.4375C55.3787 42.6189 55.4095 44.8041 55.3967 46.988C55.3967 47.0446 55.4287 47.1012 55.4761 47.2594C55.7183 46.9752 55.9361 46.7552 56.1129 46.507C58.245 43.5141 60.3591 40.507 62.5027 37.5218C65.9686 32.696 69.4588 27.887 72.9234 23.06C73.3193 22.5082 73.6191 21.8844 73.9548 21.2889C74.5148 20.2934 75.2669 19.9821 76.0344 20.4362C76.7801 20.8773 76.9684 22.0645 76.4187 22.8902C76.3252 23.0317 76.2061 23.1577 76.0869 23.2786C75.5769 23.7944 74.9991 24.2548 74.5622 24.8259C73.4474 26.2793 72.3942 27.7815 71.3167 29.2645C71.3461 29.3121 71.3756 29.3597 71.4051 29.4073C71.6562 29.3584 71.9304 29.3558 72.1559 29.2516C74.2444 28.2883 76.3483 27.3571 78.3971 26.314C79.8936 25.5526 81.1006 24.3757 82.214 23.1281C82.387 22.9352 82.3767 22.5468 82.3895 22.2458C82.437 21.1011 83.5696 19.9937 84.7548 19.9603C85.8477 19.9294 86.8792 20.9223 86.9368 22.0606C87.0073 23.4664 85.9195 24.5236 84.4986 24.3487C84.0962 24.2986 83.9527 24.4452 83.74 24.7114C82.6151 26.1211 81.3581 27.3661 79.7642 28.2754C76.4572 30.1622 72.9887 31.6954 69.4421 33.0407C68.5504 33.379 67.993 33.9012 67.469 34.6201C65.0409 37.9539 62.5744 41.2581 60.149 44.5945C59.2226 45.8691 58.1553 47.1128 57.9387 48.7372C57.8042 49.7559 57.858 50.8209 57.9785 51.8472C58.1258 53.1141 59.6441 54.4968 61.174 54.4955C65.9942 54.4929 70.8144 54.5739 75.6346 54.6241C78.0229 54.6498 80.4125 54.6961 82.8008 54.6923C83.1686 54.6923 83.5876 54.5469 83.8925 54.3373C85.0841 53.5141 86.0438 53.4678 87.056 54.2665C87.771 54.8299 88.0951 55.7636 87.8491 56.5444C87.5134 57.6067 86.523 58.4106 85.4557 58.4891C84.6331 58.5495 83.9309 58.0916 83.4966 57.2093C83.4594 57.1334 83.43 57.0537 83.4082 57.0035H71.3628C73.2911 58.9637 75.0324 60.9431 77.9371 61.0653C79.0864 61.1129 80.2344 61.2698 81.3837 61.2724C82.05 61.2749 82.7227 61.1 83.3813 60.9508C83.9732 60.8158 84.5331 60.7965 85.0072 61.2183C85.4557 61.6183 85.7773 62.0994 85.5223 62.7463C85.2186 63.5167 84.3948 63.9952 83.5837 63.9437C82.1628 63.855 80.7393 63.7933 79.317 63.7225C79.2401 63.7187 79.1633 63.729 79.0057 63.8743C79.7911 64.4724 80.574 65.073 81.362 65.6685C81.4978 65.7714 81.6579 65.8422 81.7937 65.9438C82.3716 66.3785 82.87 66.4106 83.4991 65.9155C84.5934 65.0537 85.5377 64.9997 86.3154 65.5721C87.0714 66.1277 87.334 67.3148 86.9778 68.5097C86.6255 69.693 85.6696 70.0865 84.6087 70.2769C83.79 70.4235 82.7483 69.7611 82.2781 68.9804C81.5452 67.7663 80.5458 66.8981 79.1915 66.354C78.1216 65.9232 77.0812 65.3251 76.1663 64.6203C74.5801 63.3984 73.0925 62.0492 71.5806 60.7322C70.2288 59.554 68.9142 58.3347 67.5535 57.1682C67.3152 56.9637 66.9295 56.8479 66.6092 56.8428C65.3305 56.8222 64.0518 56.862 62.773 56.8788C62.5245 56.8813 62.2759 56.8788 61.8467 56.8788C62.6142 57.6428 63.2458 58.2858 63.8929 58.9122C65.2728 60.2486 66.6489 61.59 68.0519 62.9019C69.0975 63.8782 70.1199 64.9007 71.2769 65.7264C71.9547 66.21 72.8555 66.4582 73.6934 66.6203C74.9017 66.8544 76.1407 66.9315 77.3695 67.0409C78.1703 67.1116 78.529 67.3804 78.5367 68.0222C78.5444 68.664 78.1177 69.1039 77.3643 69.0949C76.52 69.0846 75.6769 68.9804 74.762 68.9123C75.5052 70.0094 76.3995 70.911 77.4079 71.6968C77.5399 71.7997 77.8589 71.738 78.0588 71.6647C79.0851 71.2891 80.0525 71.3136 80.8302 72.1573C81.5375 72.9251 81.7066 73.8743 81.3363 74.8467C80.9263 75.9194 80.1242 76.5123 78.9467 76.5676C77.3297 76.6435 76.4726 75.9837 76.1202 74.4428C76.0408 74.093 75.8012 73.7354 75.5398 73.4808C73.0643 71.0666 70.5863 68.655 68.075 66.2795C66.0442 64.3579 64.0377 62.4003 61.8915 60.6164C59.7389 58.8273 57.9951 56.6807 56.1513 54.6138C55.9348 54.3707 55.6875 54.1559 55.4569 53.9296C55.4569 55.7559 55.4377 57.4987 55.4774 59.2389C55.4838 59.5129 55.7029 59.8421 55.9181 60.0441C59.361 63.2711 62.8602 66.4402 66.2581 69.7148C67.9148 71.311 69.3922 73.0962 70.9476 74.7991C71.423 75.32 71.8612 75.8744 72.3558 76.3747C72.8734 76.8994 73.4231 77.2274 74.2726 77.1322C75.6628 76.9753 76.8582 79.0872 76.2663 80.5085C75.7422 81.7676 74.2572 82.3863 72.8119 81.9477C71.7497 81.6249 71.1616 80.304 71.4538 78.9689C71.4948 78.7824 71.4268 78.4917 71.2974 78.3605C68.2057 75.23 65.1101 72.1046 61.9914 69.0023C60.1285 67.1502 58.227 65.3367 56.3371 63.5116C56.0834 63.2659 55.7951 63.055 55.4364 62.7566C55.4364 64.0659 55.3364 65.2621 55.4838 66.4261C55.5466 66.9187 56.0873 67.3843 56.4806 67.7946C57.7209 69.0885 59.033 70.3155 60.2425 71.6364C61.2188 72.7039 62.0273 73.9258 63.0165 74.9792C64.2709 76.3155 65.6329 77.5502 66.9487 78.8287C67.1781 79.0512 67.4318 79.2531 67.6355 79.4962C68.3287 80.3258 69.1141 81.0114 70.1225 81.4577C71.1527 81.9143 71.3436 82.3361 71.1744 83.3085C71.0373 84.093 70.3557 84.7104 69.4947 84.8274C68.1775 85.0075 67.4638 84.3966 67.2729 83.0718C67.2076 82.6191 66.9564 82.12 66.6387 81.7895C65.2959 80.3953 64.0146 78.9187 62.2221 78.048C61.9299 77.9052 61.6468 77.6519 61.47 77.3779C60.8332 76.3914 60.2937 75.3406 59.6223 74.3798C59.015 73.5104 58.3026 72.7104 57.5992 71.9116C56.8881 71.1039 56.1308 70.3373 55.2737 69.4242C55.3185 70.3592 55.3762 71.1168 55.3877 71.8756C55.4108 73.3959 55.4133 74.9161 55.4133 76.4364C55.4133 76.9985 55.5927 77.4319 56.0142 77.8461C57.6722 79.4808 59.279 81.167 60.9267 82.812C61.1035 82.9882 61.4187 83.0332 61.6775 83.1117C61.7698 83.14 61.8889 83.0988 61.9927 83.0744C64.2837 82.5355 65.6598 84.4403 65.0986 86.5548C64.8872 87.3509 64.3477 87.895 63.5674 88.0352C62.8948 88.1561 62.1708 88.1561 61.4943 88.0519C60.7858 87.9413 60.2937 87.4281 60.2745 86.6757C60.2476 85.5709 59.6595 84.8043 58.9279 84.0879C57.8452 83.0268 56.7728 81.9528 55.6926 80.8892C55.6094 80.8081 55.4953 80.7593 55.4031 80.6988C55.4031 82.304 55.3864 83.8757 55.4248 85.4461C55.43 85.6339 55.7054 85.8397 55.89 85.9953C56.9829 86.9136 58.122 87.7805 59.1688 88.749C59.6749 89.2172 60.017 89.8641 60.4231 90.439C60.5192 90.5767 60.6346 90.749 60.6282 90.9008C60.6115 91.2879 60.6525 91.8834 60.4449 92.0056C60.1554 92.1754 59.566 92.1265 59.2713 91.9259C58.6985 91.5362 58.2437 90.9728 57.7363 90.4854C56.9829 89.7638 56.2256 89.0461 55.3864 88.2487C55.339 88.4982 55.2967 88.6268 55.2942 88.7567C55.2749 89.5053 55.2929 90.2564 55.2467 91.0037C55.1942 91.8796 55.3595 92.5921 56.1078 93.1966C56.8586 93.8037 56.7958 94.8545 56.1206 95.6712C55.5235 96.3928 54.0616 96.722 53.2351 96.3207C52.1755 95.8076 51.5694 94.776 51.8475 93.7137C51.9679 93.2545 52.3831 92.8764 52.6521 92.4532C52.8046 92.214 53.0455 91.9619 53.0532 91.7085C53.0942 90.4082 53.0724 89.1053 53.0724 87.6776C52.8225 87.904 52.6188 88.0673 52.4382 88.2538C51.4862 89.2352 50.5675 90.2526 49.5758 91.1915C49.208 91.5387 48.6942 91.7754 48.2061 91.9349C47.7179 92.0931 47.4847 91.7664 47.5718 91.2828C47.6154 91.0397 47.7307 90.7953 47.864 90.5831C49.1055 88.6088 50.7212 86.9638 52.4587 85.4371C52.829 85.1104 53.0352 84.7799 53.034 84.295C53.0288 82.9715 53.0314 81.648 53.0314 80.1406C52.738 80.3747 52.5522 80.4892 52.4074 80.6435C51.153 81.9837 49.8987 83.3252 48.6596 84.6808C48.2791 85.0975 48.0587 85.5606 48.1471 86.1895C48.306 87.3059 47.568 87.9104 46.7044 88.3837C45.8037 88.8763 44.9554 88.659 44.2008 88.0712C43.1757 87.2725 42.7414 85.9837 43.127 85.077C43.6408 83.8718 44.8542 83.23 46.3021 83.5168C46.8236 83.6197 47.0529 83.4384 47.354 83.0962C48.7506 81.5117 50.1741 79.9515 51.5912 78.385C51.7194 78.2422 51.8475 78.0737 52.0128 77.9953C52.9186 77.5708 53.0429 76.8107 53.0058 75.9207C52.9468 74.5097 52.9481 73.0949 52.9161 71.6827C52.911 71.4525 52.8687 71.2222 52.8251 70.8158C52.492 71.1039 52.2332 71.2775 52.0397 71.5052C51.4439 72.2036 50.9314 72.983 50.2818 73.6235C48.5187 75.3612 46.7006 77.0422 44.9055 78.7477C43.8523 79.7483 42.8042 80.7528 41.7471 81.7496C41.3986 82.0776 41.2384 82.439 41.2781 82.9419C41.3371 83.7085 40.9027 84.304 40.1557 84.6307C39.5253 84.9059 38.7873 84.7593 38.2658 84.25C37.3113 83.3175 37.1678 81.8036 38.5669 81.1683C39.87 80.5766 40.8015 79.5798 41.7689 78.5792C43.432 76.8596 45.2181 75.2596 46.8441 73.5065C48.2509 71.9901 49.5002 70.3271 50.8301 68.7386C51.3644 68.1007 51.9051 67.464 52.4869 66.8698C52.893 66.4544 53.0557 65.9939 53.0468 65.4293C53.0314 64.4544 53.0429 63.4782 53.0429 62.5019C52.9635 62.4659 52.8853 62.4299 52.8059 62.3939C52.4945 62.6203 52.1447 62.8093 51.8757 63.0781C50.169 64.7862 48.47 66.502 46.7864 68.2319C43.719 71.3869 40.6683 74.5573 37.5983 77.7097C37.2306 78.0879 37.0794 78.4596 37.1114 79.0113C37.2267 80.9663 36.0607 82.1985 34.29 82.0802C33.2983 82.0146 32.3732 81.1618 32.2476 80.1728C32.0977 78.9921 32.3565 77.9117 33.347 77.2004C33.7365 76.92 34.3451 76.9586 34.841 76.8107C35.1856 76.7078 35.5982 76.6216 35.8288 76.3811C38.8386 73.2287 41.783 70.0119 44.8248 66.893C46.7762 64.8917 48.8723 63.0306 50.8865 61.091C53.3876 58.6807 52.9071 59.4344 53.0147 56.4338C53.0442 55.6247 53.0186 54.8132 53.0186 53.8974C52.8174 54.0029 52.5689 54.0517 52.4587 54.2022C51.3183 55.7598 49.7603 56.8633 48.3509 58.1354C45.7511 60.4788 43.2116 62.8917 40.6798 65.311C38.1159 67.7611 35.5969 70.2563 33.0472 72.7206C32.6756 73.0808 32.4706 73.4358 32.4962 73.9952C32.5577 75.3444 31.4353 76.4866 30.0746 76.5535C28.6664 76.6229 27.5299 75.7007 27.3775 74.3682C27.2186 72.974 28.1091 71.7663 29.4749 71.5309C29.7261 71.4872 29.981 71.4589 30.236 71.446C30.5832 71.4293 31.0445 71.5759 31.2598 71.4036C31.894 70.8968 32.4309 70.2666 32.9357 69.756C32.3027 69.1836 31.7889 68.718 31.2751 68.2524C31.2944 68.1881 31.3149 68.1225 31.3341 68.0582C31.6967 67.9836 32.067 67.819 32.4219 67.8473C34.4028 68.0094 35.7981 66.9894 37.1204 65.6865C39.8739 62.974 42.6747 60.3103 45.4539 57.6235C45.6358 57.4473 45.796 57.2479 46.0702 56.9444C45.0656 56.9444 44.1739 57.055 43.3192 56.9212C41.7048 56.6678 40.5491 57.2672 39.3882 58.3656C36.8475 60.7695 34.1952 63.0576 31.5455 65.3444C30.2706 66.4441 28.8868 67.4164 27.5786 68.4788C27.2032 68.7836 26.9175 69.1991 26.5907 69.5644C25.7336 70.5213 24.4241 70.8042 23.3363 70.2679C22.3958 69.8036 21.7808 68.3836 22.023 67.2325C22.3599 65.6209 24.3344 64.8955 25.6746 65.9052C25.9949 66.1457 26.264 66.4544 26.6061 66.7772C27.1455 66.336 27.7196 65.8743 28.2846 65.401C28.8343 64.9405 29.3737 64.4685 30.0284 63.9064C29.0483 63.9064 28.1821 63.8987 27.316 63.909C26.6548 63.9167 25.9937 63.9875 25.3351 63.9618C24.3523 63.9232 23.6694 63.0949 23.7745 62.1418C23.868 61.2942 24.7418 60.7373 25.5913 61.0871C27.6094 61.9206 29.712 61.5965 31.7876 61.608C32.1579 61.6106 32.6051 61.4125 32.887 61.1617C34.3361 59.8691 35.743 58.5302 37.1614 57.2042C37.219 57.1502 37.2511 57.0691 37.2703 57.0382C36.326 57.0382 35.3804 57.0382 34.4348 57.0382C31.7056 57.0357 28.9752 57.0357 26.2461 57.0267C25.9296 57.0267 25.7067 57.0408 25.5747 57.428C25.2723 58.318 24.205 58.9624 23.3158 58.8685C22.31 58.7617 21.3849 57.8948 21.2209 56.9045C21.0171 55.6762 21.4887 54.5997 22.4727 54.0453C23.4529 53.4935 24.4651 53.671 25.453 54.5456C25.5785 54.6575 25.772 54.7514 25.9347 54.7514C29.9439 54.7489 33.9543 54.745 37.9635 54.7141C40.9489 54.6897 43.9355 54.655 46.9209 54.5675C48.2996 54.5276 49.6091 54.1997 50.3548 52.8466C50.9083 51.8421 50.9557 50.7488 50.7033 49.6633C50.2305 47.6324 49.0107 45.9938 47.8204 44.3449C45.8331 41.5899 43.8535 38.8298 41.8688 36.0722C41.1577 35.0832 40.453 34.0889 39.7175 33.1179C39.5612 32.9108 39.3011 32.6832 39.0641 32.651C36.4913 32.305 34.2708 31.0343 31.9773 29.9603C30.1591 29.1089 28.3448 28.2317 26.8739 26.822C26.1525 26.1301 25.5311 25.3314 24.8379 24.6085C24.6932 24.458 24.4202 24.3384 24.2178 24.3539C23.3645 24.4207 22.7174 24.1095 22.2638 23.3957C21.7846 22.6407 21.7744 21.8548 22.2151 21.0857C22.7302 20.1763 23.9705 19.7082 24.9276 20.0259C26.0103 20.3847 26.5741 21.2825 26.519 22.4362C26.5049 22.7397 26.61 23.1191 26.7983 23.3506C28.3025 25.1912 30.2334 26.4645 32.3668 27.4548C33.8723 28.1545 35.3701 28.8709 36.9871 29.4947C36.8769 29.2889 36.7885 29.0664 36.6514 28.8799C35.2228 26.9352 33.798 24.9867 32.3437 23.06C31.853 22.4092 31.762 21.7455 32.0631 21.0149C32.3565 20.3011 33.124 19.9281 33.789 20.3037C34.2798 20.5815 34.8243 21.0124 35.0306 21.5075C35.8378 23.4535 37.137 25.0715 38.3184 26.7667C41.2999 31.0458 44.3058 35.307 47.3156 39.5668C48.734 41.5732 50.1869 43.5552 51.6117 45.5578C51.9705 46.062 52.2754 46.6035 52.6163 47.1205C52.7457 47.316 52.9058 47.4922 53.0519 47.6762C53.0942 47.6543 53.1352 47.6337 53.1775 47.6118H53.1749Z" fill="#0B3D2E"/>
</svg>
